<svg width="125" height="100" fill="none" xmlns="http://www.w3.org/2000/svg"><path fill="#E5E5E5" d="M0 0h125v100H0z"/><g clip-path="url(#a)"><path fill="#fff" d="M-140-1604h1440v3131H-140z"/><g filter="url(#b)"><path fill="#F0F0F0" d="M0 0h1160v100H0z"/><path fill="#FFE17F" d="M0 0h125v100H0z"/><g clip-path="url(#c)" fill="#000"><path d="m85.7 50.4-6.5-8.2c-.3-.4-.7-.6-1.2-.6h-8.3v-5.1c0-.8-.7-1.5-1.5-1.5H40.5c-.8 0-1.5.7-1.5 1.5s.7 1.5 1.5 1.5h26.2v21.7H54.8a4.7 4.7 0 0 0-4.5-3.3 4.9 4.9 0 0 0-4.8 4.8c0 2.6 2.2 4.8 4.8 4.8 2.1 0 3.9-1.4 4.5-3.3h13.4c.8 0 1.5-.7 1.5-1.5V44.6h7.6l5.7 7.3v7.9h-2.2a4.7 4.7 0 0 0-4.5-3.3 4.9 4.9 0 0 0-4.8 4.8c0 2.6 2.1 4.8 4.8 4.8 2.1 0 3.9-1.4 4.5-3.3h3.7c.8 0 1.5-.7 1.5-1.5v-9.9c0-.4-.1-.7-.3-1ZM50.3 63c-1 0-1.8-.8-1.8-1.8s.8-1.8 1.8-1.8 1.8.8 1.8 1.8-.9 1.8-1.8 1.8Zm26.1 0c-1 0-1.8-.8-1.8-1.8s.8-1.8 1.8-1.8 1.8.8 1.8 1.8-.9 1.8-1.8 1.8Z"/><path d="M58.4 44.6c.8 0 1.5-.7 1.5-1.5s-.7-1.5-1.5-1.5H43.8c-.8 0-1.5.7-1.5 1.5s.7 1.5 1.5 1.5h14.6ZM56.7 49.7c0-.8-.7-1.5-1.5-1.5H40.5c-.8 0-1.5.7-1.5 1.5s.7 1.5 1.5 1.5h14.7c.8 0 1.5-.7 1.5-1.5Z"/></g></g></g><path stroke="#000" d="M-139.5-1603.5h1439v3130h-1439z"/><defs><clipPath id="a"><path fill="#fff" d="M-140-1604h1440v3131H-140z"/></clipPath><clipPath id="c"><path fill="#fff" transform="translate(39 35)" d="M0 0h47v31H0z"/></clipPath><filter id="b" x="-4" y="0" width="1168" height="108" filterUnits="userSpaceOnUse" color-interpolation-filters="sRGB"><feFlood flood-opacity="0" result="BackgroundImageFix"/><feColorMatrix in="SourceAlpha" values="0 0 0 0 0 0 0 0 0 0 0 0 0 0 0 0 0 0 127 0" result="hardAlpha"/><feOffset dy="4"/><feGaussianBlur stdDeviation="2"/><feComposite in2="hardAlpha" operator="out"/><feColorMatrix values="0 0 0 0 0 0 0 0 0 0 0 0 0 0 0 0 0 0 0.25 0"/><feBlend in2="BackgroundImageFix" result="effect1_dropShadow_0_1"/><feColorMatrix in="SourceAlpha" values="0 0 0 0 0 0 0 0 0 0 0 0 0 0 0 0 0 0 127 0" result="hardAlpha"/><feOffset dy="4"/><feGaussianBlur stdDeviation="2"/><feComposite in2="hardAlpha" operator="out"/><feColorMatrix values="0 0 0 0 0 0 0 0 0 0 0 0 0 0 0 0 0 0 0.25 0"/><feBlend in2="effect1_dropShadow_0_1" result="effect2_dropShadow_0_1"/><feColorMatrix in="SourceAlpha" values="0 0 0 0 0 0 0 0 0 0 0 0 0 0 0 0 0 0 127 0" result="hardAlpha"/><feOffset dy="4"/><feGaussianBlur stdDeviation="2"/><feComposite in2="hardAlpha" operator="out"/><feColorMatrix values="0 0 0 0 0 0 0 0 0 0 0 0 0 0 0 0 0 0 0.25 0"/><feBlend in2="effect2_dropShadow_0_1" result="effect3_dropShadow_0_1"/><feColorMatrix in="SourceAlpha" values="0 0 0 0 0 0 0 0 0 0 0 0 0 0 0 0 0 0 127 0" result="hardAlpha"/><feOffset dy="4"/><feGaussianBlur stdDeviation="2"/><feComposite in2="hardAlpha" operator="out"/><feColorMatrix values="0 0 0 0 0 0 0 0 0 0 0 0 0 0 0 0 0 0 0.25 0"/><feBlend in2="effect3_dropShadow_0_1" result="effect4_dropShadow_0_1"/><feBlend in="SourceGraphic" in2="effect4_dropShadow_0_1" result="shape"/></filter></defs></svg>