<svg width="160" height="160" fill="none" xmlns="http://www.w3.org/2000/svg"><path fill="#E5E5E5" d="M0 0h160v160H0z"/><g clip-path="url(#a)"><path fill="#fff" d="M-940-820H500v3131H-940z"/><path fill="#FFE17F" d="M0 0h160v160H0z"/><path d="M106.5 64.2H105v-4.6c0-5-4.1-9.2-9.1-9.2H61.1c-5 0-9.1 4.1-9.1 9.2v42.8c0 5 4 9.2 9 9.2H96c5 0 9-4.1 9-9.2V99h1.6c.4 0 .8-.3.8-.8V84.5c0-.5-.4-.8-.8-.8H105v-8.8h1.5c.8 0 1.5-.7 1.5-1.5v-7.7c0-.8-.7-1.5-1.5-1.5ZM86 61.1a5.3 5.3 0 0 1 0 10.7c-3 0-5.3-2.4-5.3-5.4 0-3 2.4-5.3 5.3-5.3Zm-15.2 0a5.3 5.3 0 0 1 0 10.7c-2.9 0-5.3-2.4-5.3-5.4 0-3 2.4-5.3 5.3-5.3ZM57.3 81.4c0-3 2.4-5.4 5.3-5.4 3 0 5.3 2.4 5.3 5.4 0 3-2.4 5.4-5.3 5.4-3 0-5.3-2.4-5.3-5.4Zm13.6 19.5c-2.9 0-5.3-2.4-5.3-5.4 0-3 2.4-5.3 5.3-5.3a5.3 5.3 0 0 1 0 10.7Zm1.5-20a6 6 0 0 1 6-6 6 6 0 0 1 6.1 6 6 6 0 0 1-6 6.2 6 6 0 0 1-6-6.1Zm13.7 20c-3 0-5.3-2.4-5.3-5.4 0-3 2.4-5.3 5.3-5.3a5.3 5.3 0 0 1 0 10.7Zm8.3-14.1c-3 0-5.3-2.4-5.3-5.4 0-3 2.4-5.4 5.3-5.4 3 0 5.3 2.4 5.3 5.4 0 3-2.4 5.4-5.3 5.4ZM61.6 47.3h33.7c.9 0 1.5-.7 1.3-1.5L95 35c-.2-1.6-1.8-3-3.5-3h-26a3.7 3.7 0 0 0-3.5 3l-1.7 10.8c0 .8.5 1.5 1.3 1.5ZM95.3 114.7H61.6c-.8 0-1.4.7-1.3 1.5L62 127c.2 1.6 1.8 3 3.5 3h26c1.7 0 3.3-1.4 3.5-3l1.6-10.8c.2-.8-.4-1.5-1.3-1.5Z" fill="#363636"/></g><path stroke="#000" d="M-939.5-819.5h1439v3130h-1439z"/><defs><clipPath id="a"><path fill="#fff" d="M-940-820H500v3131H-940z"/></clipPath></defs></svg>